<svg id="Layer_1" data-name="Layer 1" xmlns="http://www.w3.org/2000/svg" viewBox="0 0 1300.43395 540.55024"><defs><style>.cls-1{fill:none;stroke:#000;stroke-miterlimit:10;stroke-width:20px;}</style></defs><title>shrub-testrunner</title><path class="cls-1" d="M108.19914,544.17942c30.18536-12.84479,49.38342-28.13971,61.73676-46.11554,19.38916-28.214,21.14011-57.24237,22.839-88.73294a280.63362,280.63362,0,0,0-7.52231-81.02164" transform="translate(-17.69513 -23.62879)"/><path class="cls-1" d="M1316.78965,554.26915c-106.29346-14.3667-195.03828-38.96117-336.20727-39.50476S746.647,538.83805,666.40452,544.65751c-162.34686,11.77393-280.68329-59.82288-347.59937-21.69019-7.9809,4.548-46.11279,27.67932-59.81653,17.14191-2.76178-2.12366-3.39572-5.53192-3.81979-7.99078-11.36655-65.90552-26.85367-93.46222-11.53812-110.89453,27.14658-30.8985,62.49731-27.4035,77.97345-65.17184,7.38348-18.01889,3.95007-36.283.81824-47.22928" transform="translate(-17.69513 -23.62879)"/><path class="cls-1" d="M236.45246,290.48252c-0.95139,49.24841,4.85846,85.94247,16.08463,87.89053,2.5733,0.44653,8.442-.24094,13.52551-2.45215a41.78864,41.78864,0,0,0,14.54572-10.51569c7.76788-8.71768,8.98221-18.75644,10.73749-31.465a119.96835,119.96835,0,0,0,.89163-23.58905" transform="translate(-17.69513 -23.62879)"/><g id="_6nP87N.tif" data-name="6nP87N.tif"><path class="cls-1" d="M363.37259,245.72243c-1.38483,8.89029-2.19547,17.71307-4.20242,26.25476-4.75571,20.24063-17.60321,33.457-37.50186,38.90613-20.33356,5.56821-38.24008.18341-52.94717-14.92886-6.9368-7.1279-13.39334-14.72321-20.423-22.5-5.53983,8.58121-10.776,16.6691-15.98926,24.77176-15.10036,23.46963-40.14285,35.074-67.4167,29.58228-27.212-5.47925-44.12341-22.60822-50.94443-49.57083-1.0606-4.19241-2.26611-8.36536-3.00452-12.61679-0.60665-3.49283-2.03321-4.52106-5.68218-4.15189-13.906,1.40689-27.54884.69235-40.54366-5.45929-24.66774-11.67758-40.2237-38.92142-36.4635-64.34935,4.42415-29.91782,25.74168-51.8215,54.35659-55.94229,6.23382-.89775,12.4335-2.03247,18.83938-3.08948,0.45838-7.25356,1.04854-14.20854,1.313-21.17589,1.399-36.85852,31.93953-71.29826,68.54318-76.61745,37.93073-5.512,67.51555,7.85715,88.30328,40.23053,4.048,6.304,8.005,12.66643,12.02145,18.99081a6.28094,6.28094,0,0,0,1.1846.92682c7.129-4.50159,14.40637-9.10509,21.6918-13.69582a59.48918,59.48918,0,0,1,88.91644,33.88125,110.903,110.903,0,0,1,3.30121,12.5354c0.54889,3.34149,2.33139,4.2886,5.25876,4.72528,6.24936,0.93222,12.58362,1.63329,18.67581,3.22324,27.77521,7.2487,46.52823,34.25775,43.08667,61.63739-3.7099,29.51442-27.362,51.47774-56.72836,51.61006C385.95462,248.95012,374.88193,246.87366,363.37259,245.72243Z" transform="translate(-17.69513 -23.62879)"/></g><path d="M329.98,464.70073c7.501,4.19971,21.90039,9.8999,35.10059,9.8999,14.10059-.2998,22.501-8.3999,22.501-18,0-9.30029-4.80078-15.00049-19.20117-22.50049-16.7998-8.7002-28.7998-21.30029-28.7998-38.1001,0-28.20068,24.60059-48.00049,59.10059-48.00049,15.2998,0,27.90039,3.6001,34.5,7.5l-9,25.2002a58.37118,58.37118,0,0,0-27.2998-6.6001c-13.2002,0-22.2002,7.2002-22.2002,17.1001,0,8.1001,6.59961,13.80029,18.90039,20.1001C409.48094,420,423.88133,432,423.88133,450.60063c0,32.1001-27,49.80029-62.10059,49.80029-17.10059,0-33-4.7998-40.80078-10.5Z" transform="translate(-17.69513 -23.62879)"/><path d="M445.477,497.40092l40.2002-213.002h35.10059l-17.10059,88.80078h0.60059c12.2998-15.30029,28.5-25.2002,48.90039-25.2002,20.10059,0,36.60059,12.6001,36.60059,39.30029a155.84039,155.84039,0,0,1-2.40039,25.80029l-16.2002,84.30078H536.3784L551.978,415.5a119.43829,119.43829,0,0,0,1.7998-19.2002c0-11.1001-5.09961-19.80029-18.2998-19.80029-17.10059,0-36.30078,20.40039-42,51.30078l-13.2002,69.60059H445.477Z" transform="translate(-17.69513 -23.62879)"/><path d="M610.47312,497.40092l17.10059-90.001c3.89941-20.7002,5.69922-42.90039,7.5-56.10059h30.2998c-0.89941,9.90039-1.7998,20.1001-3.2998,30.90039h0.90039c9.89941-19.80029,25.7998-34.2002,45.90039-34.2002a63.21336,63.21336,0,0,1,7.5.59961l-6.90039,34.20068a41.32084,41.32084,0,0,0-6.59961-.6001c-24.90039,0-40.80078,25.2002-46.501,56.40039l-11.09961,58.80078H610.47312Z" transform="translate(-17.69513 -23.62879)"/><path d="M865.77,351.29936L846.5698,452.10063c-3.2998,17.3999-5.39941,32.69971-7.19922,45.30029H808.47019l3-25.50049h-0.60059c-14.09961,18.8999-32.40039,28.80029-50.7002,28.80029-21.2998,0-38.10059-11.40039-38.10059-41.40039a124.4278,124.4278,0,0,1,3-26.1001l15.60059-81.90088h34.7998l-15,79.80078a103.99285,103.99285,0,0,0-2.39941,20.1001c0,12.00049,4.7998,20.7002,18.59961,20.7002,16.2002,0,35.10059-19.2002,40.80078-49.50049l13.5-71.10059H865.77Z" transform="translate(-17.69513 -23.62879)"/><path d="M952.769,284.399l-18.30078,88.50049h0.60059c11.7002-15.8999,29.09961-24.8999,48-24.8999,31.2002,0,44.10059,25.5,44.10059,51.60059,0,46.2002-31.80078,101.10059-94.20117,101.10059-30.59961,0-48.90039-12.90039-48.60059-39.30029a140.83279,140.83279,0,0,1,2.7002-25.2002L917.66844,284.399H952.769ZM921.86863,438.00053a75.09413,75.09413,0,0,0-1.5,17.3999c0,12,6.89941,18.6001,19.5,18.6001,30.60059,0,50.7002-39.30029,50.7002-67.80078,0-16.19971-6.89941-29.7002-23.09961-29.7002-18.001,0-36.60059,18.6001-42.60059,48.00049Z" transform="translate(-17.69513 -23.62879)"/><path d="M1104.57273,351.29936l-27.001,143.10156c-4.7998,24.59961-10.5,40.5-19.7998,50.7002-9,10.2002-22.80078,15-36.90039,15a79.38457,79.38457,0,0,1-18.90039-2.09961l4.2002-26.7002a48.67954,48.67954,0,0,0,10.5.89941c11.10059,0,20.10059-6.2998,25.2002-34.2002L1069.772,351.29936h34.80078Zm-30.90039-39.6001c0-12.60059,9.59961-21.30029,21-21.30029,11.09961,0,18.59961,7.7998,18.59961,18.8999,0,12.90039-9.59961,21.00049-21.59961,21.00049C1081.17234,330.29936,1073.67234,322.49907,1073.67234,311.69926Z" transform="translate(-17.69513 -23.62879)"/><path d="M1118.67137,464.70073c7.5,4.19971,21.89941,9.8999,35.09961,9.8999,14.10059-.2998,22.5-8.3999,22.5-18,0-9.30029-4.79981-15.00049-19.19922-22.50049C1140.271,425.39994,1128.271,412.79985,1128.271,396c0-28.20068,24.60059-48.00049,59.10059-48.00049,15.2998,0,27.90039,3.6001,34.5,7.5l-9,25.2002a58.37118,58.37118,0,0,0-27.29981-6.6001c-13.20019,0-22.20019,7.2002-22.20019,17.1001,0,8.1001,6.59961,13.80029,18.90039,20.1001,15.89941,8.7002,30.2998,20.7002,30.2998,39.30078,0,32.1001-27,49.80029-62.10059,49.80029-17.10059,0-33-4.7998-40.80078-10.5Z" transform="translate(-17.69513 -23.62879)"/></svg>